# xmcd
#
# Track frame offsets:
#	150
#	15307
#	31676
#	52737
#	69948
#	90356
#	103455
#	117712
#	130972
#	145313
#	162076
#	179722
#	190877
#
# Disc length: 2724 seconds
#
# Revision: 0
# Processed by: cddbd v1.5.2PL0 Copyright (c) Steve Scherf et al.
# Submitted via: EZCDAudioConverter 3.1.0.1
#
DISCID=ac0aa20d
DTITLE=LeRoy Mack - Scratchin' My Beard
DYEAR=2006
DGENRE=Dobro
TTITLE0=God's Armor
TTITLE1=Steel Guitar Rag
TTITLE2=Tramp On The Street
TTITLE3=Caravan
TTITLE4=How Great Thouy Art
TTITLE5=Heaven Is Real
TTITLE6=Santa Claus
TTITLE7=Satan's Train
TTITLE8=Scratch'n My Beard
TTITLE9=Go Close The Windows
TTITLE10=Mississippi Squirrel
TTITLE11=Malaguena
TTITLE12=Cry'n Holy To The Lord
EXTD=
EXTT0=
EXTT1=
EXTT2=
EXTT3=
EXTT4=
EXTT5=
EXTT6=
EXTT7=
EXTT8=
EXTT9=
EXTT10=
EXTT11=
EXTT12=
PLAYORDER=
